<?xml version="1.0" encoding="UTF-8"?>
<svg version="1.1" xmlns="http://www.w3.org/2000/svg" width="512" height="512">
<path d="M0 0 C2.73235943 1.32718742 4.93642298 2.6369926 7.21484375 4.65234375 C8.11033936 5.43762451 8.11033936 5.43762451 9.02392578 6.23876953 C9.65540527 6.79935059 10.28688477 7.35993164 10.9375 7.9375 C12.28720157 9.12173098 13.63747171 10.30531424 14.98828125 11.48828125 C16.00075928 12.37700928 16.00075928 12.37700928 17.03369141 13.28369141 C19.87203176 15.76116008 22.74417735 18.1971814 25.625 20.625 C26.15351562 21.07101563 26.68203125 21.51703125 27.2265625 21.9765625 C28.28798515 22.87189456 29.34966961 23.76691635 30.41162109 24.66162109 C33.08908953 26.91767427 35.76372957 29.17706606 38.4375 31.4375 C38.96988281 31.88738281 39.50226563 32.33726562 40.05078125 32.80078125 C44.09344762 36.22149895 48.11071961 39.67105537 52.125 43.125 C56.18628745 46.61815106 60.27518587 50.06448396 64.4375 53.4375 C69.54307465 57.58060991 74.49800053 61.8823045 79.45288086 66.20288086 C83.08737851 69.36465838 86.75520843 72.46850206 90.5 75.5 C95.53348541 79.57757127 100.42333309 83.80505915 105.30810547 88.05810547 C109.91564418 92.0676569 114.54815353 96.04479694 119.22827148 99.96948242 C121.92017656 102.22817897 124.58437864 104.50870596 127.20703125 106.84765625 C143.97168284 121.67431513 162.40728912 129.7966656 185 130 C204.48780003 128.68832115 220.46829293 120.75860753 235 108 C236.21022773 106.94970242 237.42120862 105.90027227 238.6328125 104.8515625 C240.57484301 103.16952386 242.515737 101.48628571 244.45263672 99.79833984 C248.93636746 95.89543275 253.50455858 92.11535734 258.125 88.375 C261.63547639 85.47504125 265.06832727 82.49241862 268.5 79.5 C272.78216104 75.76595557 277.08331268 72.07541354 281.5 68.5 C286.53348541 64.42242873 291.42333309 60.19494085 296.30810547 55.94189453 C301.96419371 51.01987908 307.67768348 46.16927867 313.41162109 41.33837891 C316.08908953 39.08232573 318.76372957 36.82293394 321.4375 34.5625 C321.96988281 34.11261719 322.50226563 33.66273438 323.05078125 33.19921875 C327.09344715 29.77850145 331.11076382 26.32899557 335.125 22.875 C340.1680894 18.53638841 345.28123488 14.29822784 350.453125 10.11328125 C353.81006628 7.32784378 357.02516012 4.39980626 360.22265625 1.43359375 C362 0 362 0 364 0 C364.07013257 24.73057885 364.12300903 49.46114275 364.15543652 74.19180107 C364.17089446 85.67510175 364.19196354 97.15834058 364.22631836 108.64160156 C364.25625347 118.65234168 364.2755828 128.66303699 364.28226548 138.67382061 C364.28617076 143.97269623 364.29532647 149.27144369 364.31719017 154.57027817 C364.33762023 159.56231547 364.34382062 164.55417235 364.33932304 169.54624748 C364.34014533 171.37392216 364.34607198 173.20160316 364.35761642 175.02924156 C364.44291372 189.23511057 363.68372844 200.19649599 353.30078125 210.72265625 C346.70617013 216.75413204 339.51434599 219.11946137 330.60254383 219.13142776 C329.52586974 219.13526891 328.44919565 219.13911005 327.33989507 219.1430676 C325.57435506 219.14176787 325.57435506 219.14176787 323.77314758 219.14044189 C322.51819699 219.14341302 321.2632464 219.14638414 319.970267 219.1494453 C316.48918104 219.15750235 313.00811571 219.15930415 309.52702153 219.16004276 C305.77159456 219.16189558 302.01617824 219.16944408 298.26075745 219.17617798 C290.04990162 219.18975273 281.83905069 219.19578471 273.62818551 219.20018864 C268.49976959 219.20295257 263.37135555 219.2071902 258.2429409 219.21169281 C244.03957011 219.22388446 229.83620081 219.23418391 215.6328249 219.2375679 C214.72399186 219.23778747 213.81515882 219.23800703 212.87878538 219.23823325 C211.51230205 219.23856067 211.51230205 219.23856067 210.118213 219.2388947 C208.27224942 219.23933816 206.42628584 219.23978473 204.58032227 219.24023438 C203.20683416 219.24056652 203.20683416 219.24056652 201.80559882 219.24090537 C186.97197142 219.24485255 172.13839317 219.26230458 157.30478475 219.2855939 C142.06974903 219.30932008 126.83473796 219.32177033 111.59968346 219.32293582 C103.04803457 219.32385188 94.49644972 219.32958676 85.9448185 219.34775543 C78.66223949 219.36317353 71.37974432 219.36826681 64.09715209 219.36001733 C60.38350165 219.35611684 56.67001994 219.35701086 52.95639038 219.37107468 C48.92472927 219.38620285 44.89344657 219.37792934 40.86177063 219.36749268 C39.69589757 219.37554908 38.53002451 219.38360548 37.32882196 219.39190602 C25.44539224 219.3200431 16.80592405 216.71332645 8.27734375 208.30078125 C1.48942782 200.87910413 -0.15977357 193.03277219 -0.12025452 183.14762878 C-0.12110894 182.36339816 -0.12196337 181.57916753 -0.12284368 180.77117234 C-0.12448891 178.14714819 -0.11899278 175.52318817 -0.11352539 172.89916992 C-0.11324329 171.01668296 -0.11340171 169.13419588 -0.1139679 167.25170898 C-0.11425496 162.14265424 -0.10837282 157.03362295 -0.10139394 151.92457366 C-0.09514537 146.58475218 -0.09455541 141.24493017 -0.09336853 135.90510559 C-0.09025966 125.79400825 -0.08205223 115.68292172 -0.07201904 105.57182914 C-0.06084414 94.06044636 -0.05534398 82.54906307 -0.05032361 71.03767622 C-0.03986927 47.35844482 -0.02227839 23.67922301 0 0 Z " fill="#000000" transform="translate(74,187)"/>
<path d="M0 0 C1.61501114 -0.00576172 1.61501114 -0.00576172 3.26264876 -0.01163983 C5.02818877 -0.01034011 5.02818877 -0.01034011 6.82939625 -0.00901413 C8.08434684 -0.01198525 9.33929743 -0.01495637 10.63227683 -0.01801753 C14.11336279 -0.02607459 17.59442812 -0.02787638 21.0755223 -0.028615 C24.83094927 -0.03046781 28.58636559 -0.03801631 32.34178638 -0.04475021 C40.55264221 -0.05832496 48.76349314 -0.06435695 56.97435832 -0.06876087 C62.10277424 -0.0715248 67.23118828 -0.07576244 72.35960293 -0.08026505 C86.56297373 -0.0924567 100.76634302 -0.10275615 114.96971893 -0.10614014 C115.87855197 -0.1063597 116.78738501 -0.10657927 117.72375845 -0.10680549 C119.09024178 -0.10713291 119.09024178 -0.10713291 120.48433083 -0.10746694 C122.33029441 -0.1079104 124.17625799 -0.10835696 126.02222157 -0.10880661 C126.9378803 -0.10902804 127.85353904 -0.10924947 128.79694501 -0.10947761 C143.63057241 -0.11342479 158.46415066 -0.13087682 173.29775908 -0.15416613 C188.5327948 -0.17789232 203.76780587 -0.19034257 219.00286037 -0.19150805 C227.55450926 -0.19242411 236.10609411 -0.19815899 244.65772533 -0.21632767 C251.94030434 -0.23174577 259.22279951 -0.23683905 266.50539174 -0.22858956 C270.21904218 -0.22468907 273.93252389 -0.2255831 277.64615345 -0.23964691 C281.67781457 -0.25477509 285.70909726 -0.24650158 289.7407732 -0.23606491 C290.90664626 -0.24412132 292.07251933 -0.25217772 293.27372187 -0.26047826 C305.15715159 -0.18861533 313.79661978 2.41810132 322.32520008 10.83064651 C329.860936 19.06996466 331.62354956 29.25821065 331.25879383 40.18220901 C330.83142735 44.30532428 329.41821465 46.27238265 326.29004383 49.06892776 C324.42021093 50.45877535 322.52306865 51.81251313 320.60254383 53.13142776 C318.75717559 54.61659683 316.92377961 56.11676234 315.10254383 57.63142776 C314.18473133 58.37392776 313.26691883 59.11642776 312.32129383 59.88142776 C309.68106654 62.06644346 307.13524663 64.32314167 304.60254383 66.63142776 C301.28264897 69.65425197 297.90490271 72.55654938 294.41504383 75.38142776 C289.96402191 78.98612862 285.61055778 82.68513044 281.29004383 86.44392776 C280.33980335 87.27053909 280.33980335 87.27053909 279.3703661 88.11384964 C278.08422728 89.23305262 276.79817595 90.35235614 275.5122118 91.4717598 C268.36863142 97.680154 261.20608511 103.85966749 253.85254383 109.81892776 C249.47102588 113.37410681 245.28543702 117.09912314 241.11426258 120.89705276 C238.60103151 123.13277309 236.02942904 125.26520458 233.41504383 127.38142776 C226.97705478 132.59529214 220.75090817 138.0418403 214.50342274 143.48054886 C206.56094314 150.37844856 198.55198805 157.20036873 190.50537586 163.97639847 C187.6472499 166.38655729 184.80889664 168.81633796 181.99316883 171.27595901 C170.03341723 181.70396703 161.04548998 188.85743156 144.52051258 188.44392776 C139.4285224 188.03778697 135.86404769 186.88835985 131.60254383 184.13142776 C131.01215321 183.75373245 130.42176258 183.37603714 129.81348133 182.98689651 C122.98928733 178.18092159 116.83765066 172.32688479 110.56055164 166.83943558 C107.5033668 164.17259453 104.43092527 161.52375489 101.35254383 158.88142776 C100.77456043 158.38521927 100.19657703 157.88901077 99.60107899 157.37776566 C96.05902989 154.34783824 92.47413851 151.37884368 88.85254383 148.44392776 C84.47102588 144.88874872 80.28543702 141.16373239 76.11426258 137.36580276 C73.60103151 135.13008244 71.02942904 132.99765095 68.41504383 130.88142776 C61.97705478 125.66756339 55.75090817 120.22101523 49.50342274 114.78230667 C41.55648702 107.88053691 33.53576484 101.06455491 25.49438953 94.27327347 C21.53768377 90.9292498 17.59728171 87.56668091 13.66504383 84.19392776 C12.79625599 83.44888992 12.79625599 83.44888992 11.90991688 82.68880081 C8.93498342 80.13632358 5.96277303 77.58072795 2.99316883 75.02205276 C-2.33866251 70.43306866 -7.68075287 65.87264942 -13.14745617 61.44392776 C-17.60407381 57.82867747 -21.88149623 54.05494283 -26.10839367 50.17439651 C-28.37667994 48.04472034 -28.37667994 48.04472034 -31.15526867 46.34627151 C-33.39745617 44.13142776 -33.39745617 44.13142776 -33.99120617 40.59236526 C-33.99087259 39.23002768 -33.95813503 37.8674134 -33.89745617 36.50642776 C-33.87828136 35.79293167 -33.85910656 35.07943558 -33.8393507 34.34431839 C-33.39119468 23.6370232 -30.24320538 16.057808 -22.69823742 8.40877151 C-16.10362629 2.37729572 -8.91180216 0.01196639 0 0 Z " fill="#000000" transform="translate(107.39745616912842,105.86857223510742)"/>
</svg>
