<?xml version="1.0" encoding="UTF-8"?>
<svg version="1.1" xmlns="http://www.w3.org/2000/svg" width="1280" height="1280">
<path d="M0 0 C1.25871918 -0.00067474 2.51743835 -0.00134949 3.81430054 -0.00204468 C25.65010908 0.01645424 47.23780653 0.79600883 68.9375 3.25 C69.69063477 3.33485657 70.44376953 3.41971313 71.21972656 3.50714111 C156.42483671 13.24648319 239.53877045 41.53034733 366.9375 129.25 C367.51725586 129.73065918 368.09701172 130.21131836 368.69433594 130.70654297 C375.3502814 136.23154985 381.84486634 141.89495759 388.15722656 147.81103516 C390.83255722 150.32642639 390.83255722 150.32642639 393.9375 152.25 C392.64801287 155.08297223 391.29829923 157.13861374 389.09892082 159.33467484 C388.51669506 159.92088269 387.9344693 160.50709055 387.33460033 161.11106229 C386.6945286 161.74530834 386.05445686 162.37955439 385.39498901 163.03302002 C384.3756212 164.05495111 384.3756212 164.05495111 383.3356601 165.09752727 C381.05255873 167.38392833 378.76237226 169.66309814 376.47216797 171.94238281 C374.83599629 173.57799048 373.20026462 175.2140384 371.56494141 176.85049438 C367.11925627 181.29675444 362.66742212 185.73681175 358.21448278 190.17580509 C353.56374951 194.81405415 348.91866184 199.45795 344.27297974 204.10125732 C336.47329074 211.89576525 328.66978465 219.6864372 320.86376953 227.47460938 C312.82366609 235.49635389 304.78566657 243.52019696 296.75048828 251.546875 C296.25517246 252.04166537 295.75985664 252.53645574 295.24953125 253.04623976 C292.76468231 255.52847863 290.27987467 258.01075885 287.79508758 260.49305964 C267.18229366 281.08512121 246.56218863 301.66985214 225.9375 322.25 C221.83624289 319.5697091 218.32712117 316.85245281 214.8125 313.4375 C160.32894802 262.24531427 82.46183076 237.23135487 8.9375 235.25 C7.91785156 235.22035156 6.89820313 235.19070313 5.84765625 235.16015625 C2.87270444 235.12174224 -0.08811248 235.17426328 -3.0625 235.25 C-3.80113281 235.26256836 -4.53976562 235.27513672 -5.30078125 235.28808594 C-73.56140693 236.58854109 -140.78195338 259.22408523 -196.0625 299.25 C-196.61083496 299.64670898 -197.15916992 300.04341797 -197.72412109 300.45214844 C-208.14857731 308.04224686 -218.02338626 316.18194203 -227.5078125 324.9140625 C-229.68192099 326.90200879 -231.88672776 328.83533338 -234.125 330.75 C-240.92070502 336.66839064 -247.26611631 343.10907693 -253.11328125 349.96484375 C-254.61298008 351.72300771 -256.13569016 353.4615625 -257.66796875 355.19140625 C-310.48130688 415.10599728 -342.93742416 496.27631257 -345.0625 576.25 C-345.09537109 577.44979492 -345.09537109 577.44979492 -345.12890625 578.67382812 C-346.37658793 633.19751774 -334.34522007 687.9695232 -311.0625 737.25 C-310.37051514 738.72243164 -310.37051514 738.72243164 -309.66455078 740.22460938 C-297.94018496 764.95178524 -283.52184273 788.14883118 -266.0625 809.25 C-265.03962891 810.53197266 -265.03962891 810.53197266 -263.99609375 811.83984375 C-250.62900359 828.50685957 -235.46948034 845.11307114 -218.59765625 858.26953125 C-215.86037637 860.40789936 -213.25361573 862.66716569 -210.625 864.9375 C-162.89263815 904.66314309 -102.23940888 928.89962854 -41.0625 937.25 C-40.1967334 937.36859375 -39.3309668 937.4871875 -38.43896484 937.609375 C42.72489262 948.04406262 132.5013169 928.92576148 199.9375 882.25 C200.55125488 881.83153809 201.16500977 881.41307617 201.79736328 880.98193359 C210.05352101 875.34062934 217.79347618 869.24627589 225.32055664 862.66235352 C226.46565304 861.66214474 227.61647496 860.66847345 228.77124023 859.67944336 C241.57921325 848.64236298 253.72926948 836.60260881 263.70458984 822.92285156 C264.9571879 821.22328684 266.24846542 819.560129 267.55078125 817.8984375 C292.65921958 785.4191335 306.09516456 747.61934175 315.9375 708.25 C211.9875 708.25 108.0375 708.25 0.9375 708.25 C0.9375 633.01 0.9375 557.77 0.9375 480.25 C183.4275 480.25 365.9175 480.25 553.9375 480.25 C556.31371495 492.7251285 558.61639576 504.87676187 560.0625 517.4375 C560.14432526 518.13245575 560.22615051 518.8274115 560.31045532 519.54342651 C561.90289844 533.08446978 563.12759939 546.63837347 563.9375 560.25 C563.99534668 561.21035156 564.05319336 562.17070313 564.11279297 563.16015625 C568.62108953 641.82123574 559.74397871 721.91067631 443.9375 974.25 C442.81988281 975.64025391 442.81988281 975.64025391 441.6796875 977.05859375 C428.44557128 993.39964407 414.3977446 1008.85056002 399.5625 1023.75 C398.82563965 1024.4915332 398.0887793 1025.23306641 397.32958984 1025.99707031 C392.6935628 1030.6195081 387.90054382 1034.98325624 382.9375 1039.25 C381.78098344 1040.27166455 380.62598865 1041.29505479 379.47265625 1042.3203125 C370.29100302 1050.42254368 360.7541534 1057.93495017 350.9375 1065.25 C350.28749023 1065.73742676 349.63748047 1066.22485352 348.96777344 1066.72705078 C339.83836112 1073.5659546 330.53265558 1080.08089629 320.9375 1086.25 C319.78967041 1086.98839111 319.78967041 1086.98839111 318.61865234 1087.74169922 C241.29768444 1137.17843682 152.92294059 1163.69208136 48.9375 1173.25 C47.11448364 1173.37810059 47.11448364 1173.37810059 45.25463867 1173.50878906 C31.42923044 1174.42280483 17.60140428 1174.49325682 3.75 1174.5 C1.86991241 1174.50101212 1.86991241 1174.50101212 -0.04815674 1174.50204468 C-86.69247232 1174.4283851 -171.15679818 1155.42191262 -301.0625 1091.25 C-301.97660645 1090.7019873 -302.89071289 1090.15397461 -303.83251953 1089.58935547 C-334.00463452 1071.45337958 -362.87573543 1050.34866086 -388.72265625 1026.40625 C-390.79951262 1024.49235231 -392.91427507 1022.64519089 -395.0625 1020.8125 C-398.94175277 1017.45207734 -402.52844606 1013.81625678 -406.12792969 1010.16308594 C-408.43481584 1007.83359909 -410.73773776 1005.59339535 -413.3125 1003.5625 C-416.23462215 1001.10526092 -418.54427251 998.45434717 -421.01171875 995.5546875 C-423.42401577 992.84372514 -425.97895685 990.29549842 -428.5625 987.75 C-432.9464255 983.41244577 -437.07086794 978.94890699 -441.0625 974.25 C-442.36767578 972.76113281 -442.36767578 972.76113281 -443.69921875 971.2421875 C-451.00397301 962.88431999 -457.81888877 954.22060658 -464.48193359 945.34521484 C-465.97065965 943.3717445 -467.47601265 941.41248923 -468.98828125 939.45703125 C-524.5582577 867.20005289 -561.47145991 779.32958426 -584.0625 643.25 C-584.18109375 642.1455957 -584.2996875 641.04119141 -584.421875 639.90332031 C-588.06812243 604.25474054 -587.86613516 566.87441791 -584.0625 531.25 C-583.93891113 530.04069824 -583.81532227 528.83139648 -583.68798828 527.58544922 C-580.08327179 493.22922405 -573.39539506 459.49698401 -564.0625 426.25 C-563.73668945 425.0861377 -563.41087891 423.92227539 -563.07519531 422.72314453 C-555.1024188 394.69449757 -544.3316049 367.65375844 -532.0625 341.25 C-531.58345215 340.20827637 -531.1044043 339.16655273 -530.61083984 338.09326172 C-506.49431617 285.80406808 -474.06517561 237.29086144 -435.29296875 194.7265625 C-434.03849148 193.3336753 -432.79046942 191.93468628 -431.565979 190.5153656 C-427.50313111 185.80739989 -423.28245631 181.32269356 -418.87890625 176.93359375 C-418.21970688 176.27343765 -417.56050751 175.61328156 -416.8813324 174.93312073 C-415.49853165 173.54964494 -414.11448924 172.16740917 -412.72924805 170.78637695 C-410.63019657 168.69268331 -408.5365406 166.59370126 -406.44335938 164.49414062 C-405.08886214 163.14030429 -403.73405469 161.78677825 -402.37890625 160.43359375 C-401.76406876 159.81673203 -401.14923126 159.1998703 -400.51576233 158.5643158 C-396.19200156 154.26336748 -391.68318135 150.22820214 -387.0625 146.25 C-385.87123575 145.20444527 -384.68095674 144.15776562 -383.4921875 143.109375 C-375.22797113 135.8645232 -366.7919045 128.92570726 -358.0625 122.25 C-357.46953125 121.79334961 -356.8765625 121.33669922 -356.265625 120.86621094 C-338.68093126 107.34891698 -320.5285375 94.71870202 -301.34130859 83.58203125 C-299.20997847 82.33620554 -297.09668732 81.06539059 -294.98828125 79.78125 C-245.45159116 49.76122517 -190.38742521 28.43595826 -134.0625 15.25 C-132.30897217 14.83693604 -132.30897217 14.83693604 -130.52001953 14.41552734 C-101.6741607 7.71028988 -72.56732146 3.55971583 -43.0625 1.25 C-41.90435791 1.15428711 -40.74621582 1.05857422 -39.55297852 0.95996094 C-26.38484225 -0.00832265 -13.19802708 0.00637999 0 0 Z " fill="#34A853" transform="translate(639.0625,52.75)"/>
<path d="M0 0 C1.25871918 -0.00067474 2.51743835 -0.00134949 3.81430054 -0.00204468 C25.65010908 0.01645424 47.23780653 0.79600883 68.9375 3.25 C69.69063477 3.33485657 70.44376953 3.41971313 71.21972656 3.50714111 C156.42483671 13.24648319 239.53877045 41.53034733 366.9375 129.25 C367.51725586 129.73065918 368.09701172 130.21131836 368.69433594 130.70654297 C375.3502814 136.23154985 381.84486634 141.89495759 388.15722656 147.81103516 C390.83255722 150.32642639 390.83255722 150.32642639 393.9375 152.25 C392.64801287 155.08297223 391.29829923 157.13861374 389.09892082 159.33467484 C388.51669506 159.92088269 387.9344693 160.50709055 387.33460033 161.11106229 C386.6945286 161.74530834 386.05445686 162.37955439 385.39498901 163.03302002 C384.3756212 164.05495111 384.3756212 164.05495111 383.3356601 165.09752727 C381.05255873 167.38392833 378.76237226 169.66309814 376.47216797 171.94238281 C374.83599629 173.57799048 373.20026462 175.2140384 371.56494141 176.85049438 C367.11925627 181.29675444 362.66742212 185.73681175 358.21448278 190.17580509 C353.56374951 194.81405415 348.91866184 199.45795 344.27297974 204.10125732 C336.47329074 211.89576525 328.66978465 219.6864372 320.86376953 227.47460938 C312.82366609 235.49635389 304.78566657 243.52019696 296.75048828 251.546875 C296.25517246 252.04166537 295.75985664 252.53645574 295.24953125 253.04623976 C292.76468231 255.52847863 290.27987467 258.01075885 287.79508758 260.49305964 C267.18229366 281.08512121 246.56218863 301.66985214 225.9375 322.25 C221.83624289 319.5697091 218.32712117 316.85245281 214.8125 313.4375 C160.32894802 262.24531427 82.46183076 237.23135487 8.9375 235.25 C7.91785156 235.22035156 6.89820313 235.19070313 5.84765625 235.16015625 C2.87270444 235.12174224 -0.08811248 235.17426328 -3.0625 235.25 C-3.80113281 235.26256836 -4.53976562 235.27513672 -5.30078125 235.28808594 C-73.56140693 236.58854109 -140.78195338 259.22408523 -196.0625 299.25 C-196.61083496 299.64670898 -197.15916992 300.04341797 -197.72412109 300.45214844 C-208.14857731 308.04224686 -218.02338626 316.18194203 -227.5078125 324.9140625 C-229.68192099 326.90200879 -231.88672776 328.83533338 -234.125 330.75 C-240.92070502 336.66839064 -247.26611631 343.10907693 -253.11328125 349.96484375 C-254.61298008 351.72300771 -256.13569016 353.4615625 -257.66796875 355.19140625 C-310.48130688 415.10599728 -342.93742416 496.27631257 -345.0625 576.25 C-345.09537109 577.44979492 -345.09537109 577.44979492 -345.12890625 578.67382812 C-346.03136379 618.11122274 -339.7865928 657.11826114 -327.81665039 694.66357422 C-327.0625 697.25 -327.0625 697.25 -327.0625 699.25 C-329.25435506 701.04192677 -331.45944519 702.71647165 -333.75 704.375 C-335.22593867 705.46262185 -336.7011632 706.5512133 -338.17578125 707.640625 C-338.96807129 708.22392578 -339.76036133 708.80722656 -340.57666016 709.40820312 C-344.89406361 712.60703358 -349.16548325 715.86593567 -353.4375 719.125 C-354.32695312 719.80304687 -355.21640625 720.48109375 -356.1328125 721.1796875 C-364.08101778 727.24754814 -371.97873006 733.37888056 -379.86083984 739.53222656 C-383.59118367 742.44270551 -387.32715519 745.3459442 -391.0625 748.25 C-392.56252628 749.41663287 -394.0625263 750.58329952 -395.5625 751.75 C-422.56250001 772.75000001 -422.56250001 772.75000001 -424.81347656 774.50073242 C-426.31025643 775.66491259 -427.80700134 776.8291377 -429.30371094 777.9934082 C-433.10269058 780.94849173 -436.90231465 783.90274014 -440.703125 786.85546875 C-447.50179352 792.13821794 -454.29718481 797.42457332 -461.0625 802.75 C-468.59933409 808.68274019 -476.17347871 814.56721918 -483.74804688 820.45166016 C-486.77463068 822.80332854 -489.80011749 825.15640456 -492.82519531 827.51000977 C-494.30839336 828.66351833 -495.79211169 829.81635826 -497.27636719 830.96850586 C-501.23783262 834.04486126 -505.18806769 837.13447909 -509.125 840.2421875 C-509.95128906 840.891875 -510.77757812 841.5415625 -511.62890625 842.2109375 C-513.22314226 843.46483099 -514.81440936 844.72251061 -516.40234375 845.984375 C-517.11519531 846.54382813 -517.82804688 847.10328125 -518.5625 847.6796875 C-519.50609375 848.42581299 -519.50609375 848.42581299 -520.46875 849.18701172 C-522.0625 850.25 -522.0625 850.25 -524.0625 850.25 C-556.39325536 785.08746573 -576.51689261 715.59351088 -584.0625 643.25 C-584.18109375 642.1455957 -584.2996875 641.04119141 -584.421875 639.90332031 C-588.06812243 604.25474054 -587.86613516 566.87441791 -584.0625 531.25 C-583.93891113 530.04069824 -583.81532227 528.83139648 -583.68798828 527.58544922 C-580.08327179 493.22922405 -573.39539506 459.49698401 -564.0625 426.25 C-563.73668945 425.0861377 -563.41087891 423.92227539 -563.07519531 422.72314453 C-555.1024188 394.69449757 -544.3316049 367.65375844 -532.0625 341.25 C-531.58345215 340.20827637 -531.1044043 339.16655273 -530.61083984 338.09326172 C-506.49431617 285.80406808 -474.06517561 237.29086144 -435.29296875 194.7265625 C-434.03849148 193.3336753 -432.79046942 191.93468628 -431.565979 190.5153656 C-427.50313111 185.80739989 -423.28245631 181.32269356 -418.87890625 176.93359375 C-418.21970688 176.27343765 -417.56050751 175.61328156 -416.8813324 174.93312073 C-415.49853165 173.54964494 -414.11448924 172.16740917 -412.72924805 170.78637695 C-410.63019657 168.69268331 -408.5365406 166.59370126 -406.44335938 164.49414062 C-405.08886214 163.14030429 -403.73405469 161.78677825 -402.37890625 160.43359375 C-401.76406876 159.81673203 -401.14923126 159.1998703 -400.51576233 158.5643158 C-396.19200156 154.26336748 -391.68318135 150.22820214 -387.0625 146.25 C-385.87123575 145.20444527 -384.68095674 144.15776562 -383.4921875 143.109375 C-375.22797113 135.8645232 -366.7919045 128.92570726 -358.0625 122.25 C-357.46953125 121.79334961 -356.8765625 121.33669922 -356.265625 120.86621094 C-338.68093126 107.34891698 -320.5285375 94.71870202 -301.34130859 83.58203125 C-299.20997847 82.33620554 -297.09668732 81.06539059 -294.98828125 79.78125 C-245.45159116 49.76122517 -190.38742521 28.43595826 -134.0625 15.25 C-132.30897217 14.83693604 -132.30897217 14.83693604 -130.52001953 14.41552734 C-101.6741607 7.71028988 -72.56732146 3.55971583 -43.0625 1.25 C-41.90435791 1.15428711 -40.74621582 1.05857422 -39.55297852 0.95996094 C-26.38484225 -0.00832265 -13.19802708 0.00637999 0 0 Z " fill="#EA4334" transform="translate(639.0625,52.75)"/>
<path d="M0 0 C182.49 0 364.98 0 553 0 C555.37621495 12.4751285 557.67889576 24.62676187 559.125 37.1875 C559.24773788 38.22993362 559.24773788 38.22993362 559.37295532 39.29342651 C560.96539844 52.83446978 562.19009939 66.38837347 563 80 C563.08677002 81.44052734 563.08677002 81.44052734 563.17529297 82.91015625 C567.68358953 161.57123574 558.80647871 241.66067631 443 494 C442.25492188 494.92683594 441.50984375 495.85367187 440.7421875 496.80859375 C424.93968175 516.32100676 407.84672232 534.35130379 390 552 C386.76062892 550.81468703 384.20965645 549.60752755 381.57421875 547.3828125 C380.95087646 546.86452881 380.32753418 546.34624512 379.68530273 545.81225586 C378.69639038 544.97706421 378.69639038 544.97706421 377.6875 544.125 C372.20644031 539.57946889 366.66227574 535.17218855 360.9375 530.9375 C355.70448733 527.0597312 350.56454643 523.09543359 345.5 519 C340.41273197 514.8872172 335.25159032 510.90074589 330 507 C324.0404161 502.57205446 318.20688108 498.01450752 312.42700195 493.35498047 C307.50974034 489.3940147 302.52676077 485.53215891 297.51171875 481.6953125 C293.3225474 478.48746518 289.16233945 475.24253579 285 472 C279.84451434 467.98523191 274.68315684 463.97898909 269.5 460 C260.5147248 453.10039094 251.58557012 446.12848881 242.64746094 439.16796875 C227.85722535 427.65143683 213.01725854 416.21956928 198 405 C199.84147999 400.87905191 202.00244467 399.40228791 205.8125 396.9375 C212.41751627 392.54775593 218.4037516 387.65372899 224.36694336 382.4284668 C225.5185891 381.42109959 226.67624318 380.42058112 227.83813477 379.42504883 C240.64478539 368.38954765 252.79297961 356.35094928 262.76708984 342.67285156 C264.0196879 340.97328684 265.31096542 339.310129 266.61328125 337.6484375 C291.72171958 305.1691335 305.15766456 267.36934175 315 228 C211.05 228 107.1 228 0 228 C0 152.76 0 77.52 0 0 Z " fill="#4185F3" transform="translate(640,533)"/>
<path d="M0 0 C2.65965367 1.26325386 5.00993639 2.6314606 7.36328125 4.3984375 C7.99492188 4.87152344 8.6265625 5.34460938 9.27734375 5.83203125 C9.94894531 6.34121094 10.62054688 6.85039062 11.3125 7.375 C12.01890625 7.90738281 12.7253125 8.43976563 13.453125 8.98828125 C18.83145644 13.06277476 24.10556364 17.25636149 29.3527832 21.49755859 C33.82833856 25.10119168 38.38746062 28.57392468 43 32 C48.95581045 36.42514188 54.7858905 40.97952425 60.56201172 45.63623047 C66.63165566 50.52562132 72.80667682 55.26888291 79 60 C88.58902095 67.35361861 98.13503031 74.76129781 107.66943359 82.18554688 C111.44517264 85.12513336 115.22263307 88.06250584 119 91 C123.55949384 94.54572028 128.1185484 98.09199896 132.67578125 101.640625 C139.27201386 106.77594703 145.86968837 111.9087193 152.5 117 C157.57682954 120.89839358 162.63571316 124.8192133 167.6875 128.75 C168.43773437 129.33354248 169.18796875 129.91708496 169.9609375 130.51831055 C174.0049868 133.66506495 178.04539204 136.81640133 182.08203125 139.97265625 C182.90550049 140.61557617 183.72896973 141.25849609 184.57739258 141.92089844 C186.16559904 143.1609895 187.75271612 144.40247731 189.33862305 145.64550781 C190.40850464 146.48033691 190.40850464 146.48033691 191.5 147.33203125 C192.1290625 147.82421143 192.758125 148.3163916 193.40625 148.82348633 C195.00452651 150.07368449 195.00452651 150.07368449 197 151 C195.51216693 157.04862928 193.99170146 163.08443614 192.3515625 169.09375 C174.14867977 236.25376897 175.03273238 303.87581651 196.24584961 370.41357422 C197 373 197 373 197 375 C194.80814494 376.79192677 192.60305481 378.46647165 190.3125 380.125 C188.83656133 381.21262185 187.3613368 382.3012133 185.88671875 383.390625 C184.69828369 384.26557617 184.69828369 384.26557617 183.48583984 385.15820312 C179.16843639 388.35703358 174.89701675 391.61593567 170.625 394.875 C169.73554688 395.55304688 168.84609375 396.23109375 167.9296875 396.9296875 C159.98148222 402.99754814 152.08376994 409.12888056 144.20166016 415.28222656 C140.47131633 418.19270551 136.73534481 421.0959442 133 424 C131.49997372 425.16663287 129.9999737 426.33329952 128.5 427.5 C101.5 448.5 101.5 448.5 99.24902344 450.25073242 C97.75224357 451.41491259 96.25549866 452.5791377 94.75878906 453.7434082 C90.95980942 456.69849173 87.16018535 459.65274014 83.359375 462.60546875 C76.56070648 467.88821794 69.76531519 473.17457332 63 478.5 C55.46316591 484.43274019 47.88902129 490.31721918 40.31445312 496.20166016 C37.28786932 498.55332854 34.26238251 500.90640456 31.23730469 503.26000977 C29.75410664 504.41351833 28.27038831 505.56635826 26.78613281 506.71850586 C22.82466738 509.79486126 18.87443231 512.88447909 14.9375 515.9921875 C14.11121094 516.641875 13.28492188 517.2915625 12.43359375 517.9609375 C10.83935774 519.21483099 9.24809064 520.47251061 7.66015625 521.734375 C6.94730469 522.29382813 6.23445313 522.85328125 5.5 523.4296875 C4.55640625 524.17581299 4.55640625 524.17581299 3.59375 524.93701172 C2 526 2 526 0 526 C-32.33075536 460.83746573 -52.45439261 391.34351088 -60 319 C-60.11859375 317.8955957 -60.2371875 316.79119141 -60.359375 315.65332031 C-64.00562243 280.00474054 -63.80363516 242.62441791 -60 207 C-59.87641113 205.79069824 -59.75282227 204.58139648 -59.62548828 203.33544922 C-56.02077179 168.97922405 -49.33289506 135.24698401 -40 102 C-39.67418945 100.8361377 -39.34837891 99.67227539 -39.01269531 98.47314453 C-31.0377585 70.43690295 -20.25253751 43.4184369 -8 17 C-7.57074219 16.07380859 -7.14148438 15.14761719 -6.69921875 14.19335938 C-4.49336798 9.44902955 -2.26233955 4.71764335 0 0 Z " fill="#FABB05" transform="translate(115,377)"/>
</svg>
